<mxfile host="app.diagrams.net" modified="2022-07-22T14:13:31.419Z" agent="5.0 (Windows NT 10.0; Win64; x64) AppleWebKit/537.36 (KHTML, like Gecko) Chrome/103.0.0.0 Safari/537.36" etag="OqfnMatpl1R8key1mDps" version="20.1.4" type="github" pages="2">
  <diagram id="k3XtddSRICdn5ckGxZP9" name="Graveyard Support">
    <mxGraphModel dx="1304" dy="804" grid="1" gridSize="10" guides="1" tooltips="1" connect="1" arrows="1" fold="1" page="1" pageScale="1" pageWidth="850" pageHeight="1100" math="0" shadow="0">
      <root>
        <mxCell id="0" />
        <mxCell id="1" parent="0" />
        <mxCell id="qbupHraFLRX2WD-IEX-6-1" value="Deck to Graveyard" style="swimlane;" parent="1" vertex="1">
          <mxGeometry x="20" y="20" width="160" height="200" as="geometry" />
        </mxCell>
        <mxCell id="J6CSg8eaZkPXc1e662Wj-21" value="Foolish Burial" style="whiteSpace=wrap;html=1;fillColor=#e1d5e7;strokeColor=#9673a6;" parent="qbupHraFLRX2WD-IEX-6-1" vertex="1">
          <mxGeometry x="20" y="40" width="120" height="60" as="geometry" />
        </mxCell>
        <mxCell id="qbupHraFLRX2WD-IEX-6-2" value="Armageddon Knight" style="whiteSpace=wrap;html=1;fillColor=#ffe6cc;strokeColor=#d79b00;" parent="qbupHraFLRX2WD-IEX-6-1" vertex="1">
          <mxGeometry x="20" y="120" width="120" height="60" as="geometry" />
        </mxCell>
        <mxCell id="clGFGB4gFXvgcVI6caBt-5" value="" style="edgeStyle=orthogonalEdgeStyle;rounded=0;orthogonalLoop=1;jettySize=auto;html=1;" edge="1" parent="1" source="qbupHraFLRX2WD-IEX-6-3" target="clGFGB4gFXvgcVI6caBt-2">
          <mxGeometry relative="1" as="geometry" />
        </mxCell>
        <mxCell id="qbupHraFLRX2WD-IEX-6-3" value="Hand to Graveyard" style="swimlane;" parent="1" vertex="1">
          <mxGeometry x="300" y="20" width="480" height="410" as="geometry" />
        </mxCell>
        <mxCell id="uOeM7xrh9b_xjBoLv8GL-2" value="Morphing Jar" style="whiteSpace=wrap;html=1;fillColor=#e1d5e7;strokeColor=#9673a6;" parent="qbupHraFLRX2WD-IEX-6-3" vertex="1">
          <mxGeometry x="15" y="40" width="120" height="60" as="geometry" />
        </mxCell>
        <mxCell id="uOeM7xrh9b_xjBoLv8GL-3" value="Raigeki Break" style="whiteSpace=wrap;html=1;fillColor=#dae8fc;strokeColor=#6c8ebf;" parent="qbupHraFLRX2WD-IEX-6-3" vertex="1">
          <mxGeometry x="255" y="180" width="120" height="60" as="geometry" />
        </mxCell>
        <mxCell id="uOeM7xrh9b_xjBoLv8GL-5" value="Dark Core" style="whiteSpace=wrap;html=1;fillColor=#dae8fc;strokeColor=#6c8ebf;" parent="qbupHraFLRX2WD-IEX-6-3" vertex="1">
          <mxGeometry x="135" y="180" width="120" height="60" as="geometry" />
        </mxCell>
        <mxCell id="uOeM7xrh9b_xjBoLv8GL-4" value="Twin Twister" style="whiteSpace=wrap;html=1;fillColor=#ffe6cc;strokeColor=#d79b00;" parent="qbupHraFLRX2WD-IEX-6-3" vertex="1">
          <mxGeometry x="15" y="110" width="120" height="60" as="geometry" />
        </mxCell>
        <mxCell id="uOeM7xrh9b_xjBoLv8GL-1" value="Card Destruction" style="whiteSpace=wrap;html=1;fillColor=#e1d5e7;strokeColor=#9673a6;" parent="qbupHraFLRX2WD-IEX-6-3" vertex="1">
          <mxGeometry x="135" y="40" width="120" height="60" as="geometry" />
        </mxCell>
        <mxCell id="clGFGB4gFXvgcVI6caBt-6" value="Cipher Twin Rapter" style="rounded=0;whiteSpace=wrap;html=1;fillColor=#dae8fc;strokeColor=#6c8ebf;" vertex="1" parent="qbupHraFLRX2WD-IEX-6-3">
          <mxGeometry x="15" y="180" width="120" height="60" as="geometry" />
        </mxCell>
        <mxCell id="clGFGB4gFXvgcVI6caBt-8" value="Cards of Consonance" style="whiteSpace=wrap;html=1;fillColor=#ffe6cc;strokeColor=#d79b00;" vertex="1" parent="qbupHraFLRX2WD-IEX-6-3">
          <mxGeometry x="15" y="330" width="120" height="60" as="geometry" />
        </mxCell>
        <mxCell id="clGFGB4gFXvgcVI6caBt-10" value="Pendulum Call" style="whiteSpace=wrap;html=1;fillColor=#e1d5e7;strokeColor=#9673a6;" vertex="1" parent="qbupHraFLRX2WD-IEX-6-3">
          <mxGeometry x="15" y="260" width="120" height="60" as="geometry" />
        </mxCell>
        <mxCell id="clGFGB4gFXvgcVI6caBt-2" value="The White Stone of Ancients" style="whiteSpace=wrap;html=1;fillColor=#ffe6cc;strokeColor=#d79b00;" vertex="1" parent="1">
          <mxGeometry x="280" y="510" width="123" height="60" as="geometry" />
        </mxCell>
        <mxCell id="clGFGB4gFXvgcVI6caBt-4" style="edgeStyle=orthogonalEdgeStyle;rounded=0;orthogonalLoop=1;jettySize=auto;html=1;entryX=0;entryY=0.5;entryDx=0;entryDy=0;" edge="1" parent="1" source="J6CSg8eaZkPXc1e662Wj-21" target="clGFGB4gFXvgcVI6caBt-2">
          <mxGeometry relative="1" as="geometry" />
        </mxCell>
      </root>
    </mxGraphModel>
  </diagram>
  <diagram id="mfH2ATyb_PeCsaHpSg-w" name="Self Burn Support">
    <mxGraphModel dx="1369" dy="844" grid="1" gridSize="10" guides="1" tooltips="1" connect="1" arrows="1" fold="1" page="1" pageScale="1" pageWidth="850" pageHeight="1100" math="0" shadow="0">
      <root>
        <mxCell id="0" />
        <mxCell id="1" parent="0" />
        <mxCell id="zVy1A3_LeAhqffGLlYCz-1" value="Hailon, the Timelord" style="whiteSpace=wrap;html=1;" vertex="1" parent="1">
          <mxGeometry x="140" y="20" width="120" height="60" as="geometry" />
        </mxCell>
        <mxCell id="zVy1A3_LeAhqffGLlYCz-2" value="Sadion, the Timelord" style="whiteSpace=wrap;html=1;" vertex="1" parent="1">
          <mxGeometry x="20" y="20" width="120" height="60" as="geometry" />
        </mxCell>
      </root>
    </mxGraphModel>
  </diagram>
</mxfile>
